# xmcd
#
# Track frame offsets:
#	150
#	10351
#	17892
#	28024
#	37342
#	47474
#	59769
#	70353
#	84109
#	94854
#	107243
#	116383
#	128384
#	139013
#	151961
#	164792
#	177821
#	190526
#	204603
#	218612
#	232426
#	245676
#	259075
#	276267
#	290923
#	303742
#
# Disc length: 4161 seconds
#
# Revision: 2
# Processed by: cddbd v1.5.2PL0 Copyright (c) Steve Scherf et al.
# Submitted via: audiograbber 1.83.01
#
DISCID=87103f1a
DTITLE=Clyde McPhatter - Eight Classic Albums  [CD1)
DYEAR=2014
DGENRE=Oldies
TTITLE0=Heartaches
TTITLE1=Come What May
TTITLE2=Rock And Cry
TTITLE3=That's Enough For Me
TTITLE4=I Gotta Have You
TTITLE5=Bip Bam
TTITLE6=Just To Hold My Hand
TTITLE7=Lucille
TTITLE8=Long Lonely Nights
TTITLE9=When You're Sincere
TTITLE10=No Matter What
TTITLE11=No Love Like Her Love
TTITLE12=You'll Be There
TTITLE13=Love Has Joined Us Together
TTITLE14=Let's Start Over Again
TTITLE15=Bless You (For Being An Angel)
TTITLE16=Stay As Sweet As You Are
TTITLE17=I Need You So
TTITLE18=How Deep Is The Ocean
TTITLE19=Trust In Me
TTITLE20=I'll Never Be Free
TTITLE21=Don't Cry Baby
TTITLE22=The Glory Of Love
TTITLE23=There Will Never Be Another You
TTITLE24=Don't Take Your Love From Me
TTITLE25=Everybody Needs Someone
EXTD=
EXTT0=
EXTT1=
EXTT2=
EXTT3=
EXTT4=
EXTT5=
EXTT6=
EXTT7=
EXTT8=
EXTT9=
EXTT10=
EXTT11=
EXTT12=
EXTT13=
EXTT14=
EXTT15=
EXTT16=
EXTT17=
EXTT18=
EXTT19=
EXTT20=
EXTT21=
EXTT22=
EXTT23=
EXTT24=
EXTT25=
PLAYORDER=
